# File created by Blade
# Date/Time:  Wed Jan 21 14:58:10 2015
# Frame Rate: 120.000 fps
#------------------------------------------------------
:FULLY-SPECIFIED
:DEGREES
1148
root 17.557578 35.387280 -22.475026 -172.318558 3.052721 -178.531827
Spine -16.995607 3.882167 0.438821
Head 12.635892 -2.534228 -0.344869
LeftShoulder -10.467465 -31.147104 18.732852
LeftArm -1.919159 5.141711 -11.576130
LeftForeArm 10.721524 -0.000000 -3.318711
LeftHand -11.687292 -0.000000 -0.694644
LeftHandThumb1 -26.253704 0.000000 33.147579
RightShoulder -11.848922 -3.397532 -12.293999
RightArm 7.918050 36.876798 14.799445
RightForeArm -35.875614 -0.000000 3.846873
RightHand -6.203970 0.000000 6.898388
RightHandThumb1 -24.326973 -0.000000 -32.862282
LeftUpLeg 0.378974 14.010019 4.201561
LeftLeg -6.058211 -0.000000 0.000000
LeftFoot -19.874263 27.080561 -13.671336
LeftToeBase 26.335695 -0.000000 -0.000000
RightUpLeg -1.955028 -3.572634 -2.874358
RightLeg -3.011356 -0.000000 0.000000
RightFoot -18.688596 -16.908654 16.573026
RightToeBase 23.493920 -0.000000 -0.000000
1149
root 17.557547 35.387106 -22.475522 -172.320299 3.044172 -178.536167
Spine -16.994461 3.872888 0.433308
Head 12.625857 -2.532931 -0.348464
LeftShoulder -10.469865 -31.146561 18.730226
LeftArm -1.895738 5.138282 -11.574950
LeftForeArm 10.705809 0.000000 -3.316031
LeftHand -11.681214 -0.000000 -0.668918
LeftHandThumb1 -26.253704 0.000000 33.147579
RightShoulder -11.852385 -3.393437 -12.293540
RightArm 7.945086 36.867470 14.795655
RightForeArm -35.932551 -0.000000 3.807338
RightHand -6.153046 -0.000000 6.849695
RightHandThumb1 -24.326973 -0.000000 -32.862282
LeftUpLeg 0.380737 14.005668 4.199441
LeftLeg -6.060456 -0.000000 0.000000
LeftFoot -19.869159 27.073547 -13.661495
LeftToeBase 26.319550 -0.000000 -0.000000
RightUpLeg -1.953569 -3.594840 -2.877639
RightLeg -3.004673 -0.000000 0.000000
RightFoot -18.676549 -16.890050 16.531074
RightToeBase 23.398239 -0.000000 -0.000000
1150
root 17.556933 35.386838 -22.474725 -172.317613 3.032896 -178.540524
Spine -16.993131 3.863390 0.429184
Head 12.606723 -2.549735 -0.358319
LeftShoulder -10.465523 -31.155214 18.726230
LeftArm -1.890135 5.142282 -11.573494
LeftForeArm 10.706647 -0.000000 -3.302407
LeftHand -11.689204 -0.000000 -0.615938
LeftHandThumb1 -26.253704 0.000000 33.147579
RightShoulder -11.858062 -3.360017 -12.293392
RightArm 7.954257 36.839864 14.777742
RightForeArm -35.921746 -0.000000 3.833828
RightHand -6.206879 0.000000 6.909471
RightHandThumb1 -24.326973 -0.000000 -32.862282
LeftUpLeg 0.374856 14.004910 4.193327
LeftLeg -6.061780 -0.000000 0.000000
LeftFoot -19.858567 27.064118 -13.661086
LeftToeBase 26.299531 -0.000000 -0.000000
RightUpLeg -1.956880 -3.601697 -2.880752
RightLeg -3.001318 -0.000000 0.000000
RightFoot -18.667124 -16.937739 16.522646
RightToeBase 23.227814 -0.000000 -0.000000
1151
root 17.557209 35.387107 -22.472661 -172.301238 3.024553 -178.535646
Spine -17.005449 3.844776 0.435804
Head 12.584319 -2.549929 -0.366951
LeftShoulder -10.487900 -31.154759 18.741662
LeftArm -1.873813 5.131577 -11.582536
LeftForeArm 10.729277 -0.000000 -3.300202
LeftHand -11.687122 -0.000000 -0.590629
LeftHandThumb1 -26.253704 0.000000 33.147579
RightShoulder -11.854144 -3.383735 -12.289108
RightArm 7.988173 36.874272 14.787644
RightForeArm -35.890116 0.000000 3.857478
RightHand -6.282168 0.000000 6.966335
RightHandThumb1 -24.326973 -0.000000 -32.862282
LeftUpLeg 0.349073 14.004021 4.194823
LeftLeg -6.054325 -0.000000 0.000000
LeftFoot -19.862412 27.058279 -13.651150
LeftToeBase 26.356074 -0.000000 -0.000000
RightUpLeg -1.978678 -3.612087 -2.871406
RightLeg -3.000320 -0.000000 0.000000
RightFoot -18.665908 -16.871219 16.641487
RightToeBase 23.234856 -0.000000 -0.000000
1152
root 17.556611 35.386788 -22.470766 -172.286861 3.022641 -178.544377
Spine -17.018362 3.838196 0.422021
Head 12.561539 -2.545437 -0.363100
LeftShoulder -10.483721 -31.155002 18.737689
LeftArm -1.860206 5.119454 -11.567498
LeftForeArm 10.728302 -0.000000 -3.306300
LeftHand -11.694462 -0.000000 -0.612133
LeftHandThumb1 -26.253704 0.000000 33.147579
RightShoulder -11.851115 -3.361383 -12.285871
RightArm 7.984522 36.928018 14.789109
RightForeArm -35.956275 -0.000000 3.907485
RightHand -6.324035 -0.000000 7.002850
RightHandThumb1 -24.326973 -0.000000 -32.862282
LeftUpLeg 0.327635 14.005453 4.180132
LeftLeg -6.050627 -0.000000 0.000000
LeftFoot -19.855225 27.056447 -13.648419
LeftToeBase 26.292647 -0.000000 -0.000000
RightUpLeg -2.000390 -3.601720 -2.879628
RightLeg -2.986618 -0.000000 0.000000
RightFoot -18.667174 -16.933981 16.518851
RightToeBase 23.311503 -0.000000 -0.000000
